<?xml version="1.0" standalone="no"?>
<!DOCTYPE svg PUBLIC "-//W3C//DTD SVG 20010904//EN"
 "http://www.w3.org/TR/2001/REC-SVG-20010904/DTD/svg10.dtd">
<svg version="1.0" xmlns="http://www.w3.org/2000/svg"
 width="256.000000pt" height="256.000000pt" viewBox="0 0 256.000000 256.000000"
 preserveAspectRatio="xMidYMid meet">

<g transform="translate(0.000000,256.000000) scale(0.100000,-0.100000)"
fill="#000000" stroke="none">
<path d="M828 2249 c-10 -5 -31 -52 -49 -109 l-32 -100 -119 0 c-114 0 -120
-1 -144 -26 -24 -23 -26 -31 -22 -102 3 -72 1 -82 -31 -141 -33 -62 -33 -63
-14 -82 28 -28 47 -16 88 57 33 58 39 64 68 64 18 0 49 3 71 7 l39 6 -7 -44
c-4 -24 -21 -102 -39 -174 l-32 -130 -128 -3 c-71 -1 -127 1 -125 5 2 4 14 29
27 55 21 40 22 49 11 63 -28 34 -52 13 -122 -105 l-68 -115 0 -121 0 -122 -30
-12 c-17 -7 -37 -25 -45 -41 -17 -32 -20 -131 -5 -159 8 -15 4 -25 -21 -50
-22 -21 -30 -37 -26 -52 4 -13 -3 -34 -19 -57 -101 -149 -50 -348 111 -434 58
-31 202 -31 260 0 51 27 99 75 132 130 14 24 31 43 38 43 7 0 18 7 25 15 11
13 92 15 615 15 l602 0 18 -47 c25 -65 106 -145 169 -166 80 -27 162 -22 234
14 70 34 105 71 139 147 l24 52 49 0 c41 0 52 4 69 26 21 26 21 36 21 560 0
357 -4 551 -11 586 -24 112 -109 228 -207 281 -99 54 -130 57 -582 57 -418 0
-440 -2 -440 -35 1 -40 1 -40 467 -45 l448 -5 53 -28 c88 -46 157 -129 183
-219 l7 -27 -70 -3 c-55 -2 -73 -7 -82 -20 -8 -13 -8 -23 0 -35 9 -14 28 -19
83 -21 l71 -3 0 -179 0 -180 -213 0 c-118 0 -216 2 -218 4 -2 2 -3 83 -1 180
l3 175 81 3 c64 2 83 7 92 21 8 12 8 22 0 35 -9 13 -28 18 -93 20 l-81 3 0 49
c0 41 -4 52 -26 69 -26 21 -36 21 -535 21 l-509 0 0 70 0 70 114 0 c91 0 118
3 130 16 19 18 19 20 6 45 -9 16 -22 19 -95 19 l-85 0 0 94 c0 87 -2 96 -22
110 -26 18 -172 22 -200 5z m152 -134 l0 -75 -75 0 c-41 0 -75 3 -75 7 0 4 10
37 22 75 l22 68 53 0 53 0 0 -75z m-80 -268 c0 -98 -6 -141 -45 -315 -25 -111
-45 -204 -45 -207 0 -3 -119 -5 -265 -5 -261 0 -265 0 -265 21 0 11 5 29 10
40 10 18 23 19 179 19 161 0 168 1 188 23 23 24 103 339 103 402 0 52 -27 65
-132 65 l-88 0 0 35 0 35 180 0 180 0 0 -113z m510 -232 l0 -135 -49 0 c-34 0
-56 -6 -75 -21 l-26 -20 0 -195 0 -194 -139 0 c-179 0 -186 -4 -186 -114 0
-48 5 -80 13 -88 7 -7 46 -15 90 -18 l77 -5 3 -37 3 -38 -135 0 -136 0 0 252
c0 199 3 255 14 267 7 9 35 113 60 231 26 118 50 223 52 233 5 15 24 17 220
17 l214 0 0 -135z m418 -64 l2 -194 -90 -92 c-125 -128 -132 -147 -138 -352
l-5 -163 -58 0 -59 0 0 493 c0 272 3 497 7 501 4 3 81 5 172 4 l166 -3 3 -194z
m152 -37 l0 -227 -104 -106 c-58 -58 -110 -119 -115 -134 -6 -16 -11 -89 -11
-163 l0 -134 -35 0 -35 0 0 143 c0 78 5 160 11 182 8 30 36 66 110 141 l99
100 0 212 0 212 40 0 40 0 0 -226z m-570 -289 l0 -175 -35 0 -35 0 0 175 0
175 35 0 35 0 0 -175z m-638 -251 c3 -266 3 -266 27 -285 22 -18 46 -19 532
-19 540 0 521 2 503 -44 -6 -14 -68 -16 -599 -16 l-592 0 -7 42 c-15 92 -84
192 -161 234 -28 15 -35 25 -35 49 -1 68 -74 165 -135 181 -23 6 -25 11 -25
65 l0 59 245 0 244 0 3 -266z m1708 156 l0 -40 -292 0 -292 0 39 40 39 40 253
0 253 0 0 -40z m-2180 -96 c27 -17 60 -62 60 -83 0 -7 -30 -11 -85 -11 l-85 0
0 55 0 55 41 0 c22 0 53 -7 69 -16z m2180 -149 l0 -125 -53 0 c-49 0 -56 3
-92 40 -59 60 -116 83 -205 84 -93 1 -150 -23 -214 -88 -25 -26 -53 -46 -65
-46 -20 0 -21 5 -21 130 l0 130 325 0 325 0 0 -125z m-1370 50 l0 -35 -50 0
-50 0 0 35 0 35 50 0 50 0 0 -35z m300 -75 l0 -110 -110 0 -110 0 0 110 0 110
110 0 110 0 0 -110z m-1028 -16 c63 -21 126 -78 154 -138 23 -49 33 -121 16
-114 -36 14 -382 232 -377 237 30 30 139 39 207 15z m1851 -66 c23 -13 55 -43
72 -66 27 -40 30 -51 30 -121 0 -68 -3 -82 -27 -117 -39 -55 -89 -86 -149 -92
-63 -6 -91 8 -129 67 -36 53 -39 72 -7 44 35 -32 62 -43 109 -43 53 0 101 28
124 71 24 46 15 131 -17 165 -27 30 -77 54 -111 54 -35 0 -103 -38 -118 -65
-7 -14 -15 -23 -17 -21 -10 9 49 106 79 131 28 24 38 26 76 21 25 -3 63 -16
85 -28z m247 -139 c0 -38 -2 -40 -27 -37 -23 3 -29 9 -34 41 -6 37 -5 37 28
37 32 0 33 -1 33 -41z m-2300 -135 c28 -38 63 -54 115 -54 52 0 81 14 120 56
20 22 21 22 48 4 l28 -18 -33 -37 c-41 -47 -99 -74 -158 -75 -40 0 -51 5 -82
38 -36 36 -69 97 -67 124 0 9 3 8 7 -2 4 -9 14 -25 22 -36z"/>
</g>
</svg>
